<svg data-v-423bf9ae="" xmlns="http://www.w3.org/2000/svg" viewBox="0 0 356.9062418206596 60" class="font"><!----><!----><!----><g data-v-423bf9ae="" id="920add35-b068-4fa5-9640-374e62ddde38" fill="black" transform="matrix(4.6875,0,0,4.6875,-3.562490701675415,-17.4375)"><path d="M5.53 3.72C2.91 3.72 0.76 5.46 0.76 8.82C0.76 12.10 2.84 13.78 5.43 13.78C7.85 13.78 9.63 12.59 9.87 10.26L9.88 10.12L7.36 10.12L7.34 10.26C7.13 11.33 6.50 11.93 5.52 11.93C4.40 11.93 3.39 11.10 3.39 8.67C3.39 6.58 4.30 5.57 5.50 5.57C6.52 5.57 7.15 6.06 7.36 7.10L7.39 7.24L9.91 7.24L9.90 7.10C9.70 5.19 8.29 3.72 5.53 3.72ZM17.29 13.58L20.78 3.92L18.10 3.92L15.78 11.63L13.47 3.92L10.72 3.92L14.21 13.58ZM26.77 5.88L31.51 5.88L31.51 3.92L24.25 3.92L24.25 13.58L26.77 13.58L26.77 9.72L31.09 9.72L31.09 7.76L26.77 7.76ZM36.88 13.58L39.34 13.58C39.23 12.75 39.20 12.25 39.20 11.69L39.20 9.59C39.20 9.13 39.19 8.69 39.16 8.32C39.05 6.96 38.23 5.91 35.87 5.91C33.98 5.91 32.42 6.90 32.41 8.65L34.79 8.64C34.83 7.99 35.17 7.62 35.76 7.62C36.30 7.62 36.61 7.95 36.65 8.33C36.68 8.57 36.68 8.72 36.68 8.88L36.68 8.99L36.20 8.99C33.67 8.99 32.16 9.97 32.16 11.56C32.16 13.01 33.32 13.78 34.55 13.78C35.24 13.78 35.87 13.61 36.40 13.27L36.71 12.49ZM35.59 12.07C35.08 12.07 34.73 11.82 34.73 11.37C34.73 10.63 35.55 10.33 36.68 10.42L36.68 10.91C36.68 11.69 36.09 12.07 35.59 12.07ZM44.23 5.91C42.03 5.91 40.29 7.35 40.29 9.93C40.29 12.39 41.92 13.78 44.06 13.78C46.09 13.78 47.59 12.77 47.87 10.84L45.39 10.84C45.25 11.65 44.77 12.07 44.20 12.07C43.34 12.07 42.87 11.37 42.87 9.77C42.87 8.33 43.33 7.62 44.17 7.62C44.80 7.62 45.29 7.98 45.40 8.96L47.84 8.96C47.77 7.28 46.42 5.91 44.23 5.91ZM51.95 7.73L53.61 7.73L53.61 6.16L51.95 6.16L51.95 4.23L49.43 4.23L49.43 6.16L48.24 6.16L48.24 7.73L49.43 7.73L49.43 10.85C49.43 11.27 49.43 11.62 49.46 12.05C49.55 13.20 50.11 13.78 51.97 13.78C52.50 13.78 52.96 13.73 53.45 13.65L53.45 12.08C52.26 12.14 52.02 11.97 51.97 11.21C51.95 11.02 51.95 10.74 51.95 10.49ZM58.04 5.91C55.59 5.91 54.03 7.43 54.03 9.84C54.03 12.24 55.59 13.78 58.04 13.78C60.49 13.78 62.06 12.24 62.06 9.84C62.06 7.43 60.49 5.91 58.04 5.91ZM58.04 12.07C57.15 12.07 56.60 11.33 56.60 9.84C56.60 8.34 57.15 7.62 58.04 7.62C58.94 7.62 59.49 8.34 59.49 9.84C59.49 11.33 58.94 12.07 58.04 12.07ZM67.68 5.91C67.20 5.91 66.61 6.12 66.21 6.57L65.67 7.62L65.67 6.10L63.15 6.10L63.15 13.58L65.67 13.58L65.67 10.84C65.67 8.58 66.36 7.88 68.25 8.01L68.25 5.95C68.07 5.92 67.91 5.91 67.68 5.91ZM76.90 6.10L74.14 6.10L72.62 11.58L71.08 6.10L68.28 6.10L71.37 13.92L71.27 14.13C71.04 14.66 70.63 14.85 70.04 14.85C69.79 14.85 69.57 14.85 69.36 14.83L69.36 16.45C69.72 16.51 70.01 16.52 70.42 16.52C72.20 16.52 73.01 15.95 73.95 13.58Z"></path></g><!----><!----></svg>